<svg width="136" height="35" viewBox="0 0 136 35" fill="none" xmlns="http://www.w3.org/2000/svg">
<path d="M29.8398 16.1745C30.0314 16.5078 30.1322 16.8855 30.1322 17.27C30.1322 17.6545 30.0314 18.0322 29.8398 18.3655L25.531 25.7989C25.3385 26.1308 25.0622 26.4063 24.7298 26.5979C24.3975 26.7894 24.0206 26.8904 23.637 26.8906L15.0656 26.8906C14.6846 26.8877 14.3109 26.7855 13.9815 26.594C13.652 26.4026 13.3782 26.1285 13.187 25.7989L8.87818 18.3655C8.68663 18.0322 8.58582 17.6545 8.58582 17.27C8.58582 16.8855 8.68663 16.5078 8.87818 16.1745L11.2583 12.0701L16.5546 21.1275C16.6418 21.2825 16.7691 21.4113 16.9232 21.5002C17.0772 21.5891 17.2524 21.6349 17.4302 21.6328L21.2877 21.6328C21.4656 21.6349 21.6408 21.5891 21.7948 21.5002C21.9489 21.4113 22.0762 21.2825 22.1634 21.1275L24.0921 17.7599C24.1795 17.6086 24.2255 17.437 24.2255 17.2623C24.2255 17.0876 24.1795 16.916 24.0921 16.7647L15.3973 1.72045C15.0956 1.19866 14.662 0.765399 14.14 0.464107C13.618 0.162814 13.0259 0.00408879 12.4232 0.00385993L11.644 0.00385996C10.9544 0.00359678 10.2769 0.184925 9.6797 0.529598C9.08244 0.874271 8.58648 1.37014 8.24169 1.96733L0.526706 15.3104C0.181668 15.9072 -7.84862e-07 16.5845 -7.54727e-07 17.2739C-7.24593e-07 17.9633 0.181668 18.6405 0.526706 19.2373L8.2417 32.5804C8.58697 33.1769 9.08314 33.672 9.68036 34.0159C10.2776 34.3599 10.9548 34.5407 11.644 34.54L27.074 34.54C27.7636 34.5403 28.441 34.3589 29.0383 34.0143C29.6355 33.6696 30.1315 33.1737 30.4763 32.5765L38.1913 19.2335C38.5363 18.6366 38.718 17.9594 38.718 17.27C38.718 16.5806 38.5363 15.9034 38.1913 15.3065L30.4763 1.96347C30.1315 1.36628 29.6355 0.87041 29.0383 0.525736C28.441 0.181063 27.7636 -0.000256798 27.074 2.63126e-06L20.5162 2.9179e-06L29.8398 16.1745Z" fill="#475BE8"/>
<path d="M52.468 27.27V9.27H64.093V12.095H55.4805V16.5325H62.593V19.3575H55.4805V24.445H64.093V27.27H52.468ZM70.742 27.27L65.842 13.77H68.8545L72.2545 23.5575L75.642 13.77H78.667L73.767 27.27H70.742ZM86.3846 27.645C85.0346 27.645 83.8554 27.3408 82.8471 26.7325C81.8388 26.1242 81.0554 25.2867 80.4971 24.22C79.9471 23.145 79.6721 21.9117 79.6721 20.52C79.6721 19.1033 79.9554 17.8617 80.5221 16.795C81.0888 15.7283 81.8763 14.895 82.8846 14.295C83.8929 13.695 85.0596 13.395 86.3846 13.395C87.7429 13.395 88.9263 13.6992 89.9346 14.3075C90.9429 14.9158 91.7263 15.7575 92.2846 16.8325C92.8429 17.8992 93.1221 19.1283 93.1221 20.52C93.1221 21.92 92.8388 23.1575 92.2721 24.2325C91.7138 25.2992 90.9304 26.1367 89.9221 26.745C88.9138 27.345 87.7346 27.645 86.3846 27.645ZM86.3846 24.82C87.5846 24.82 88.4763 24.42 89.0596 23.62C89.6429 22.82 89.9346 21.7867 89.9346 20.52C89.9346 19.2117 89.6388 18.17 89.0471 17.395C88.4554 16.6117 87.5679 16.22 86.3846 16.22C85.5763 16.22 84.9096 16.4033 84.3846 16.77C83.8679 17.1283 83.4846 17.6325 83.2346 18.2825C82.9846 18.9242 82.8596 19.67 82.8596 20.52C82.8596 21.8283 83.1554 22.8742 83.7471 23.6575C84.3471 24.4325 85.2263 24.82 86.3846 24.82ZM96.1262 11.72V8.9575H99.1387V11.72H96.1262ZM96.1262 27.27V13.77H99.1387V27.27H96.1262ZM106.658 27.645C105.683 27.645 104.858 27.4617 104.183 27.095C103.508 26.72 102.996 26.2242 102.646 25.6075C102.304 24.9908 102.133 24.3117 102.133 23.57C102.133 22.92 102.241 22.3367 102.458 21.82C102.675 21.295 103.008 20.845 103.458 20.47C103.908 20.0867 104.491 19.7742 105.208 19.5325C105.75 19.3575 106.383 19.1992 107.108 19.0575C107.841 18.9158 108.633 18.7867 109.483 18.67C110.341 18.545 111.237 18.4117 112.171 18.27L111.096 18.8825C111.104 17.9492 110.896 17.2617 110.471 16.82C110.046 16.3783 109.329 16.1575 108.321 16.1575C107.712 16.1575 107.125 16.2992 106.558 16.5825C105.991 16.8658 105.596 17.3533 105.371 18.045L102.621 17.1825C102.954 16.0408 103.587 15.1242 104.521 14.4325C105.462 13.7408 106.729 13.395 108.321 13.395C109.521 13.395 110.575 13.5908 111.483 13.9825C112.4 14.3742 113.079 15.0158 113.521 15.9075C113.762 16.3825 113.908 16.87 113.958 17.37C114.008 17.8617 114.033 18.3992 114.033 18.9825V27.27H111.396V24.345L111.833 24.82C111.225 25.795 110.512 26.5117 109.696 26.97C108.887 27.42 107.875 27.645 106.658 27.645ZM107.258 25.245C107.941 25.245 108.525 25.1242 109.008 24.8825C109.491 24.6408 109.875 24.345 110.158 23.995C110.45 23.645 110.646 23.3158 110.746 23.0075C110.904 22.6242 110.991 22.1867 111.008 21.695C111.033 21.195 111.046 20.7908 111.046 20.4825L111.971 20.7575C111.062 20.8992 110.283 21.0242 109.633 21.1325C108.983 21.2408 108.425 21.345 107.958 21.445C107.491 21.5367 107.079 21.6408 106.721 21.7575C106.371 21.8825 106.075 22.0283 105.833 22.195C105.591 22.3617 105.404 22.5533 105.271 22.77C105.146 22.9867 105.083 23.2408 105.083 23.5325C105.083 23.8658 105.166 24.1617 105.333 24.42C105.5 24.67 105.741 24.87 106.058 25.02C106.383 25.17 106.783 25.245 107.258 25.245Z" fill="#6C5DD3"/>
</svg>
