<svg width="151" height="35" viewBox="0 0 151 35" fill="none" xmlns="http://www.w3.org/2000/svg">
<path d="M41.9808 16.1745C42.1724 16.5078 42.2732 16.8855 42.2732 17.27C42.2732 17.6545 42.1724 18.0322 41.9808 18.3655L37.672 25.7989C37.4795 26.1308 37.2032 26.4063 36.8708 26.5979C36.5385 26.7894 36.1616 26.8904 35.7779 26.8906L27.2066 26.8906C26.8256 26.8877 26.4519 26.7855 26.1224 26.594C25.793 26.4026 25.5192 26.1285 25.328 25.7989L21.0192 18.3655C20.8276 18.0322 20.7268 17.6545 20.7268 17.27C20.7268 16.8855 20.8276 16.5078 21.0192 16.1745L23.3992 12.0701L28.6956 21.1275C28.7828 21.2825 28.9101 21.4113 29.0642 21.5002C29.2182 21.5891 29.3934 21.6349 29.5712 21.6328L33.4287 21.6328C33.6066 21.6349 33.7818 21.5891 33.9358 21.5002C34.0899 21.4113 34.2172 21.2825 34.3044 21.1275L36.2331 17.7599C36.3205 17.6086 36.3665 17.437 36.3665 17.2623C36.3665 17.0876 36.3205 16.916 36.2331 16.7647L27.5383 1.72045C27.2366 1.19866 26.803 0.765399 26.281 0.464107C25.759 0.162814 25.1669 0.00408879 24.5642 0.00385993L23.785 0.00385996C23.0954 0.00359678 22.4179 0.184925 21.8207 0.529598C21.2234 0.874271 20.7275 1.37014 20.3827 1.96733L12.6677 15.3104C12.3227 15.9072 12.141 16.5845 12.141 17.2739C12.141 17.9633 12.3227 18.6405 12.6677 19.2373L20.3827 32.5804C20.728 33.1769 21.2241 33.672 21.8214 34.0159C22.4186 34.3599 23.0958 34.5407 23.785 34.54L39.215 34.54C39.9046 34.5403 40.582 34.3589 41.1793 34.0143C41.7765 33.6696 42.2725 33.1737 42.6173 32.5765L50.3323 19.2335C50.6773 18.6366 50.859 17.9594 50.859 17.27C50.859 16.5806 50.6773 15.9034 50.3323 15.3065L42.6173 1.96347C42.2725 1.36628 41.7765 0.87041 41.1793 0.525736C40.582 0.181063 39.9045 -0.000256798 39.215 2.63126e-06L32.6572 2.9179e-06L41.9808 16.1745Z" fill="#475BE8"/>
<path d="M64.609 27.27V9.27H76.234V12.095H67.6215V16.5325H74.734V19.3575H67.6215V24.445H76.234V27.27H64.609ZM82.883 27.27L77.983 13.77H80.9955L84.3955 23.5575L87.783 13.77H90.808L85.908 27.27H82.883ZM98.5256 27.645C97.1756 27.645 95.9964 27.3408 94.9881 26.7325C93.9798 26.1242 93.1964 25.2867 92.6381 24.22C92.0881 23.145 91.8131 21.9117 91.8131 20.52C91.8131 19.1033 92.0964 17.8617 92.6631 16.795C93.2298 15.7283 94.0173 14.895 95.0256 14.295C96.0339 13.695 97.2006 13.395 98.5256 13.395C99.8839 13.395 101.067 13.6992 102.076 14.3075C103.084 14.9158 103.867 15.7575 104.426 16.8325C104.984 17.8992 105.263 19.1283 105.263 20.52C105.263 21.92 104.98 23.1575 104.413 24.2325C103.855 25.2992 103.071 26.1367 102.063 26.745C101.055 27.345 99.8756 27.645 98.5256 27.645ZM98.5256 24.82C99.7256 24.82 100.617 24.42 101.201 23.62C101.784 22.82 102.076 21.7867 102.076 20.52C102.076 19.2117 101.78 18.17 101.188 17.395C100.596 16.6117 99.7089 16.22 98.5256 16.22C97.7173 16.22 97.0506 16.4033 96.5256 16.77C96.0089 17.1283 95.6256 17.6325 95.3756 18.2825C95.1256 18.9242 95.0006 19.67 95.0006 20.52C95.0006 21.8283 95.2964 22.8742 95.8881 23.6575C96.4881 24.4325 97.3673 24.82 98.5256 24.82ZM108.267 11.72V8.9575H111.28V11.72H108.267ZM108.267 27.27V13.77H111.28V27.27H108.267ZM118.799 27.645C117.824 27.645 116.999 27.4617 116.324 27.095C115.649 26.72 115.137 26.2242 114.787 25.6075C114.445 24.9908 114.274 24.3117 114.274 23.57C114.274 22.92 114.382 22.3367 114.599 21.82C114.816 21.295 115.149 20.845 115.599 20.47C116.049 20.0867 116.632 19.7742 117.349 19.5325C117.891 19.3575 118.524 19.1992 119.249 19.0575C119.982 18.9158 120.774 18.7867 121.624 18.67C122.482 18.545 123.378 18.4117 124.312 18.27L123.237 18.8825C123.245 17.9492 123.037 17.2617 122.612 16.82C122.187 16.3783 121.47 16.1575 120.462 16.1575C119.853 16.1575 119.266 16.2992 118.699 16.5825C118.132 16.8658 117.737 17.3533 117.512 18.045L114.762 17.1825C115.095 16.0408 115.728 15.1242 116.662 14.4325C117.603 13.7408 118.87 13.395 120.462 13.395C121.662 13.395 122.716 13.5908 123.624 13.9825C124.541 14.3742 125.22 15.0158 125.662 15.9075C125.903 16.3825 126.049 16.87 126.099 17.37C126.149 17.8617 126.174 18.3992 126.174 18.9825V27.27H123.537V24.345L123.974 24.82C123.366 25.795 122.653 26.5117 121.837 26.97C121.028 27.42 120.016 27.645 118.799 27.645ZM119.399 25.245C120.082 25.245 120.666 25.1242 121.149 24.8825C121.632 24.6408 122.016 24.345 122.299 23.995C122.591 23.645 122.787 23.3158 122.887 23.0075C123.045 22.6242 123.132 22.1867 123.149 21.695C123.174 21.195 123.187 20.7908 123.187 20.4825L124.112 20.7575C123.203 20.8992 122.424 21.0242 121.774 21.1325C121.124 21.2408 120.566 21.345 120.099 21.445C119.632 21.5367 119.22 21.6408 118.862 21.7575C118.512 21.8825 118.216 22.0283 117.974 22.195C117.732 22.3617 117.545 22.5533 117.412 22.77C117.287 22.9867 117.224 23.2408 117.224 23.5325C117.224 23.8658 117.307 24.1617 117.474 24.42C117.641 24.67 117.882 24.87 118.199 25.02C118.524 25.17 118.924 25.245 119.399 25.245Z" fill="#11142D"/>
</svg>
