<svg width="151" height="35" viewBox="0 0 151 35" fill="none" xmlns="http://www.w3.org/2000/svg">
<path d="M41.9808 16.2545C42.1724 16.5878 42.2732 16.9656 42.2732 17.35C42.2732 17.7345 42.1724 18.1122 41.9808 18.4455L37.672 25.8789C37.4795 26.2108 37.2032 26.4863 36.8708 26.6779C36.5385 26.8694 36.1616 26.9704 35.7779 26.9706L27.2066 26.9706C26.8256 26.9677 26.4519 26.8655 26.1224 26.674C25.793 26.4826 25.5192 26.2085 25.328 25.8789L21.0192 18.4455C20.8276 18.1122 20.7268 17.7345 20.7268 17.35C20.7268 16.9656 20.8276 16.5878 21.0192 16.2545L23.3992 12.1501L28.6956 21.2075C28.7828 21.3626 28.9101 21.4913 29.0642 21.5802C29.2182 21.6691 29.3934 21.7149 29.5712 21.7128L33.4287 21.7128C33.6066 21.7149 33.7818 21.6691 33.9358 21.5802C34.0899 21.4913 34.2172 21.3626 34.3044 21.2075L36.2331 17.8399C36.3205 17.6886 36.3665 17.517 36.3665 17.3423C36.3665 17.1676 36.3205 16.996 36.2331 16.8447L27.5383 1.80046C27.2366 1.27868 26.803 0.845411 26.281 0.544119C25.759 0.242826 25.1669 0.0841022 24.5642 0.0838724L23.785 0.0838724C23.0954 0.0836109 22.4179 0.264937 21.8207 0.60961C21.2234 0.954283 20.7275 1.45015 20.3827 2.04734L12.6677 15.3904C12.3227 15.9873 12.141 16.6645 12.141 17.3539C12.141 18.0433 12.3227 18.7205 12.6677 19.3173L20.3827 32.6604C20.728 33.2569 21.2241 33.752 21.8214 34.096C22.4186 34.4399 23.0958 34.6207 23.785 34.62L39.215 34.62C39.9045 34.6203 40.582 34.439 41.1793 34.0943C41.7765 33.7496 42.2725 33.2537 42.6173 32.6566L50.3323 19.3135C50.6773 18.7166 50.859 18.0394 50.859 17.35C50.859 16.6606 50.6773 15.9834 50.3323 15.3866L42.6173 2.04348C42.2725 1.44629 41.7765 0.950424 41.1793 0.605751C40.582 0.261078 39.9045 0.0797548 39.215 0.0800164L32.6572 0.0800167L41.9808 16.2545Z" fill="#F7F7F7"/>
<path d="M64.609 27.35V9.35002H76.234V12.175H67.6215V16.6125H74.734V19.4375H67.6215V24.525H76.234V27.35H64.609ZM82.883 27.35L77.983 13.85H80.9955L84.3955 23.6375L87.783 13.85H90.808L85.908 27.35H82.883ZM98.5256 27.725C97.1756 27.725 95.9964 27.4209 94.9881 26.8125C93.9798 26.2042 93.1964 25.3667 92.6381 24.3C92.0881 23.225 91.8131 21.9917 91.8131 20.6C91.8131 19.1834 92.0964 17.9417 92.6631 16.875C93.2298 15.8084 94.0173 14.975 95.0256 14.375C96.0339 13.775 97.2006 13.475 98.5256 13.475C99.8839 13.475 101.067 13.7792 102.076 14.3875C103.084 14.9959 103.867 15.8375 104.426 16.9125C104.984 17.9792 105.263 19.2084 105.263 20.6C105.263 22 104.98 23.2375 104.413 24.3125C103.855 25.3792 103.071 26.2167 102.063 26.825C101.055 27.425 99.8756 27.725 98.5256 27.725ZM98.5256 24.9C99.7256 24.9 100.617 24.5 101.201 23.7C101.784 22.9 102.076 21.8667 102.076 20.6C102.076 19.2917 101.78 18.25 101.188 17.475C100.596 16.6917 99.7089 16.3 98.5256 16.3C97.7173 16.3 97.0506 16.4834 96.5256 16.85C96.0089 17.2084 95.6256 17.7125 95.3756 18.3625C95.1256 19.0042 95.0006 19.75 95.0006 20.6C95.0006 21.9084 95.2964 22.9542 95.8881 23.7375C96.4881 24.5125 97.3673 24.9 98.5256 24.9ZM108.267 11.8V9.03752H111.28V11.8H108.267ZM108.267 27.35V13.85H111.28V27.35H108.267ZM118.799 27.725C117.824 27.725 116.999 27.5417 116.324 27.175C115.649 26.8 115.137 26.3042 114.787 25.6875C114.445 25.0709 114.274 24.3917 114.274 23.65C114.274 23 114.382 22.4167 114.599 21.9C114.816 21.375 115.149 20.925 115.599 20.55C116.049 20.1667 116.632 19.8542 117.349 19.6125C117.891 19.4375 118.524 19.2792 119.249 19.1375C119.982 18.9959 120.774 18.8667 121.624 18.75C122.482 18.625 123.378 18.4917 124.312 18.35L123.237 18.9625C123.245 18.0292 123.037 17.3417 122.612 16.9C122.187 16.4584 121.47 16.2375 120.462 16.2375C119.853 16.2375 119.266 16.3792 118.699 16.6625C118.132 16.9459 117.737 17.4334 117.512 18.125L114.762 17.2625C115.095 16.1209 115.728 15.2042 116.662 14.5125C117.603 13.8209 118.87 13.475 120.462 13.475C121.662 13.475 122.716 13.6709 123.624 14.0625C124.541 14.4542 125.22 15.0959 125.662 15.9875C125.903 16.4625 126.049 16.95 126.099 17.45C126.149 17.9417 126.174 18.4792 126.174 19.0625V27.35H123.537V24.425L123.974 24.9C123.366 25.875 122.653 26.5917 121.837 27.05C121.028 27.5 120.016 27.725 118.799 27.725ZM119.399 25.325C120.082 25.325 120.666 25.2042 121.149 24.9625C121.632 24.7209 122.016 24.425 122.299 24.075C122.591 23.725 122.787 23.3959 122.887 23.0875C123.045 22.7042 123.132 22.2667 123.149 21.775C123.174 21.275 123.187 20.8709 123.187 20.5625L124.112 20.8375C123.203 20.9792 122.424 21.1042 121.774 21.2125C121.124 21.3209 120.566 21.425 120.099 21.525C119.632 21.6167 119.22 21.7209 118.862 21.8375C118.512 21.9625 118.216 22.1084 117.974 22.275C117.732 22.4417 117.545 22.6334 117.412 22.85C117.287 23.0667 117.224 23.3209 117.224 23.6125C117.224 23.9459 117.307 24.2417 117.474 24.5C117.641 24.75 117.882 24.95 118.199 25.1C118.524 25.25 118.924 25.325 119.399 25.325Z" fill="#F7F7F7"/>
</svg>
