<svg width="18" height="18" viewBox="0 0 18 18" fill="none" xmlns="http://www.w3.org/2000/svg">
<path d="M18 3.44998C17.325 3.74998 16.65 3.97498 15.9 4.04998C16.65 3.59998 17.25 2.84998 17.55 2.02498C16.8 2.47498 16.05 2.77498 15.225 2.92498C14.55 2.17498 13.575 1.72498 12.525 1.72498C10.5 1.72498 8.85 3.37498 8.85 5.39998C8.85 5.69998 8.85 5.99998 8.925 6.22498C5.775 6.07498 3.075 4.57498 1.275 2.32498C0.9 2.92498 0.75 3.52498 0.75 4.19998C0.75 5.47498 1.425 6.59998 2.4 7.27498C1.8 7.27498 1.2 7.12498 0.75 6.82498C0.75 6.82498 0.75 6.82498 0.75 6.89998C0.75 8.69998 2.025 10.2 3.675 10.5C3.375 10.575 3.075 10.65 2.7 10.65C2.475 10.65 2.25 10.65 2.025 10.575C2.475 12.075 3.825 13.125 5.475 13.125C4.2 14.1 2.625 14.7 0.9 14.7C0.6 14.7 0.3 14.7 0 14.625C1.65 15.675 3.6 16.275 5.625 16.275C12.45 16.275 16.125 10.65 16.125 5.77498C16.125 5.62498 16.125 5.47498 16.125 5.32498C16.875 4.79998 17.475 4.12498 18 3.44998Z" fill="#55ACEE"/>
</svg>
