<svg width="50" height="50" viewBox="0 0 50 50" fill="none" xmlns="http://www.w3.org/2000/svg">
<rect width="50" height="50" rx="5" fill="white"/>
<path d="M35.8398 24.1744C36.0314 24.5078 36.1322 24.8855 36.1322 25.27C36.1322 25.6544 36.0314 26.0322 35.8398 26.3655L31.531 33.7989C31.3385 34.1307 31.0622 34.4062 30.7298 34.5978C30.3975 34.7894 30.0206 34.8903 29.637 34.8906L21.0656 34.8906C20.6846 34.8877 20.3109 34.7854 19.9815 34.594C19.652 34.4025 19.3782 34.1285 19.187 33.7989L14.8782 26.3655C14.6866 26.0322 14.5858 25.6544 14.5858 25.27C14.5858 24.8855 14.6866 24.5078 14.8782 24.1744L17.2583 20.0701L22.5546 29.1275C22.6418 29.2825 22.7691 29.4112 22.9232 29.5001C23.0772 29.5891 23.2524 29.6349 23.4302 29.6328L27.2877 29.6328C27.4656 29.6349 27.6408 29.5891 27.7948 29.5001C27.9489 29.4112 28.0762 29.2825 28.1634 29.1275L30.0921 25.7599C30.1795 25.6086 30.2255 25.437 30.2255 25.2623C30.2255 25.0876 30.1795 24.9159 30.0921 24.7646L21.3973 9.72042C21.0956 9.19864 20.662 8.76537 20.14 8.46407C19.618 8.16278 19.0259 8.00406 18.4232 8.00383L17.644 8.00383C16.9544 8.00357 16.2769 8.18489 15.6797 8.52957C15.0824 8.87424 14.5865 9.37011 14.2417 9.96729L6.52671 23.3104C6.18167 23.9072 6 24.5844 6 25.2738C6 25.9632 6.18167 26.6405 6.52671 27.2373L14.2417 40.5804C14.587 41.1768 15.0831 41.6719 15.6804 42.0159C16.2776 42.3599 16.9548 42.5406 17.644 42.54L33.074 42.54C33.7636 42.5402 34.441 42.3589 35.0383 42.0142C35.6355 41.6696 36.1315 41.1737 36.4763 40.5765L44.1913 27.2334C44.5363 26.6366 44.718 25.9594 44.718 25.27C44.718 24.5806 44.5363 23.9034 44.1913 23.3065L36.4763 9.96344C36.1315 9.36625 35.6355 8.87038 35.0383 8.52571C34.441 8.18103 33.7636 7.99971 33.074 7.99997L26.5162 7.99997L35.8398 24.1744Z" fill="#475BE8"/>
</svg>
